<?xml version="1.0" standalone="no"?>
<!DOCTYPE svg PUBLIC "-//W3C//DTD SVG 20010904//EN"
 "http://www.w3.org/TR/2001/REC-SVG-20010904/DTD/svg10.dtd">
<svg version="1.0" xmlns="http://www.w3.org/2000/svg"
 width="500.000000pt" height="500.000000pt" viewBox="0 0 500.000000 500.000000"
 preserveAspectRatio="xMidYMid meet">

<g transform="translate(0.000000,500.000000) scale(0.100000,-0.100000)"
fill="#000000" stroke="none">
<path d="M1974 3346 c-36 -16 -72 -51 -85 -83 l-8 -23 -37 25 c-61 41 -155 30
-212 -24 -12 -12 -28 -42 -34 -66 -12 -44 -12 -44 -39 -29 -59 30 -163 5 -207
-50 -11 -15 -24 -47 -27 -71 l-7 -43 -56 1 c-69 1 -142 -29 -168 -68 -34 -52
-30 -119 14 -235 55 -143 151 -353 200 -436 106 -181 226 -290 376 -342 63
-22 83 -24 176 -20 91 4 122 10 230 47 352 121 443 224 512 576 19 99 21 124
11 179 -14 84 -86 206 -169 292 -55 55 -67 63 -115 71 l-53 8 -36 95 c-44 117
-73 166 -114 191 -36 22 -107 24 -152 5z m127 -36 c11 -6 31 -29 45 -51 32
-51 87 -200 77 -209 -4 -4 -53 -18 -108 -32 -55 -15 -106 -28 -113 -30 -16 -4
-54 91 -72 175 -9 45 -9 62 2 84 28 58 116 91 169 63z m-291 -75 c18 -9 40
-36 56 -67 32 -63 74 -173 74 -193 0 -8 -16 -22 -35 -31 -52 -24 -95 -68 -95
-96 0 -28 49 -109 79 -130 26 -18 18 -28 -24 -28 -61 0 -120 87 -186 275 -17
50 -34 118 -37 153 -4 56 -2 65 19 88 42 46 97 56 149 29z m-244 -150 c36 -39
102 -198 126 -305 26 -114 6 -165 -72 -189 -82 -24 -129 30 -204 235 -66 177
-61 244 17 278 58 26 96 20 133 -19z m813 -102 c35 -26 123 -143 162 -216 41
-77 42 -166 5 -320 -51 -214 -124 -323 -266 -396 -112 -59 -306 -121 -399
-128 -236 -18 -429 124 -580 424 -22 46 -41 85 -41 88 0 3 19 5 43 5 83 0 146
49 171 133 6 17 7 17 35 -2 85 -61 207 -15 233 86 l10 42 32 -23 c44 -34 92
-41 140 -21 26 11 51 14 73 10 l35 -6 -52 -55 c-70 -74 -132 -218 -110 -254
14 -23 37 -3 43 37 9 53 59 152 97 191 44 45 93 74 174 103 37 13 71 30 74 37
10 27 -14 32 -65 12 -110 -42 -194 -36 -270 19 -49 36 -81 95 -62 117 19 23
95 59 189 89 180 57 278 65 329 28z m-1078 -53 c25 -14 63 -91 100 -202 53
-163 34 -221 -82 -243 -64 -12 -109 42 -168 203 -38 103 -45 148 -30 184 22
53 126 86 180 58z"/>
<path d="M3413 3079 c-18 -12 -33 -24 -33 -27 0 -4 -4 -13 -9 -21 -7 -11 -15
-9 -42 12 -47 35 -98 43 -143 22 -46 -22 -60 -42 -87 -122 -23 -72 -33 -81
-58 -59 -48 44 -124 41 -169 -7 -21 -22 -182 -459 -220 -597 -52 -187 -48
-332 13 -457 57 -115 130 -167 339 -238 194 -66 344 -49 491 56 71 51 145 194
161 313 8 52 -16 108 -58 139 -15 11 -28 26 -28 31 0 6 52 157 116 335 120
338 123 352 88 408 -19 31 -69 55 -117 57 l-39 2 -2 47 c-4 106 -114 163 -203
106z m149 -52 c10 -12 18 -33 18 -47 0 -29 -203 -615 -219 -632 -5 -5 -170 28
-179 36 -1 2 38 113 87 247 48 134 96 269 106 299 27 84 43 110 77 125 39 16
86 4 110 -28z m-254 -23 c12 -14 22 -38 22 -53 0 -16 -42 -147 -94 -292 l-94
-264 -94 3 c-51 2 -94 5 -95 6 -5 5 208 590 219 604 33 39 100 37 136 -4z
m425 -155 c15 -16 27 -37 27 -47 0 -9 -50 -160 -112 -334 -112 -316 -123 -338
-153 -309 -14 12 -270 101 -311 108 -53 9 -84 -4 -99 -41 -31 -72 27 -163 145
-225 38 -21 57 -37 56 -48 0 -10 7 -19 17 -21 20 -4 67 23 67 38 0 5 -37 26
-83 48 -132 62 -194 131 -169 187 16 34 50 32 169 -9 152 -52 202 -74 258
-112 87 -57 93 -102 35 -253 -51 -132 -129 -198 -280 -237 -88 -22 -170 -14
-300 31 -135 48 -173 67 -231 122 -59 55 -94 126 -109 219 -21 129 0 225 128
587 97 273 108 299 135 313 52 27 117 -8 117 -63 0 -16 -30 -112 -67 -215 -66
-183 -68 -187 -98 -190 -18 -2 -31 -9 -33 -19 -3 -14 16 -17 140 -22 156 -6
267 -24 384 -63 73 -25 104 -26 104 -4 0 5 -16 16 -35 24 l-34 15 23 68 c73
210 145 411 156 435 16 33 66 60 100 53 14 -3 37 -19 53 -36z"/>
</g>
</svg>
